<svg width="727" height="557" viewBox="0 0 727 557" xmlns="http://www.w3.org/2000/svg" xmlns:xlink="http://www.w3.org/1999/xlink"><title>chart</title><defs><rect id="a" x="425" y="150" width="77" height="416" rx="1"/><rect id="b" x="337" y="437" width="77" height="129" rx="1"/><rect id="c" x="249" y="354" width="77" height="212" rx="1"/><rect id="d" x="513" y="354" width="77" height="212" rx="1"/><rect id="e" x="601" y="502" width="77" height="65" rx="1"/><rect id="f" x="689" y="535" width="77" height="32" rx="1"/><rect id="g" x="751" y="150" width="30" height="30" rx="5"/><rect id="h" x="751" y="188" width="30" height="30" rx="5"/><rect id="i" x="751" y="226" width="30" height="30" rx="5"/></defs><g fill="none" fill-rule="evenodd"><path d="M0 0h727v557H0z"/><g transform="translate(-150 -76)"><use fill="#D8D8D8" xlink:href="#a"/><rect stroke="#979797" x="425.5" y="150.5" width="76" height="415" rx="1"/></g><g transform="translate(-150 -76)"><use fill="#E77979" xlink:href="#b"/><rect stroke="#979797" x="337.5" y="437.5" width="76" height="128" rx="1"/></g><g transform="translate(-150 -76)"><use fill="#E77979" xlink:href="#c"/><rect stroke="#979797" x="249.5" y="354.5" width="76" height="211" rx="1"/></g><g transform="translate(-150 -76)"><use fill="#D8D8D8" xlink:href="#d"/><rect stroke="#979797" x="513.5" y="354.5" width="76" height="211" rx="1"/></g><g transform="translate(-150 -76)"><use fill="#89D17E" xlink:href="#e"/><rect stroke="#979797" x="601.5" y="502.5" width="76" height="64" rx="1"/></g><g transform="translate(-150 -76)"><use fill="#89D17E" xlink:href="#f"/><rect stroke="#979797" x="689.5" y="535.5" width="76" height="31" rx="1"/></g><path d="M69 509.5v-451M67.5 509h585" stroke="#979797" stroke-width="6" stroke-linecap="square"/><g transform="translate(-150 -76)"><use fill="#89D17E" xlink:href="#g"/><rect stroke="#979797" x="751.5" y="150.5" width="29" height="29" rx="5"/></g><g transform="translate(-150 -76)"><use fill="#D8D8D8" xlink:href="#h"/><rect stroke="#979797" x="751.5" y="188.5" width="29" height="29" rx="5"/></g><g transform="translate(-150 -76)"><use fill="#E77979" xlink:href="#i"/><rect stroke="#979797" x="751.5" y="226.5" width="29" height="29" rx="5"/></g></g></svg>