<svg xmlns="http://www.w3.org/2000/svg" width="30" height="30" viewBox="0 0 30 30"><path fill="#FFF" fill-rule="evenodd" stroke="#FFF" d="M15 1c3.802 0 4.279.016 5.772.084 1.49.068 2.508.305 3.399.651.92.358 1.7.836 2.48 1.615a6.863 6.863 0 0 1 1.614 2.48c.346.89.583 1.908.65 3.398.069 1.493.085 1.97.085 5.772 0 3.802-.016 4.279-.084 5.772-.068 1.49-.305 2.508-.651 3.399a6.863 6.863 0 0 1-1.615 2.48 6.863 6.863 0 0 1-2.48 1.614c-.89.346-1.908.583-3.398.65-1.493.069-1.97.085-5.772.085-3.802 0-4.279-.016-5.772-.084-1.49-.068-2.508-.305-3.399-.651a6.863 6.863 0 0 1-2.48-1.615 6.862 6.862 0 0 1-1.614-2.48c-.346-.89-.583-1.908-.65-3.398C1.015 19.28 1 18.802 1 15c0-3.802.016-4.279.084-5.772.068-1.49.305-2.508.651-3.399A6.862 6.862 0 0 1 3.35 3.35a6.862 6.862 0 0 1 2.48-1.614c.89-.346 1.908-.583 3.398-.65C10.72 1.015 11.198 1 15 1zm0 2.523c-3.738 0-4.181.014-5.657.081-1.365.062-2.106.29-2.6.482a4.337 4.337 0 0 0-1.61 1.047c-.49.49-.793.957-1.047 1.61-.192.494-.42 1.235-.482 2.6-.067 1.476-.081 1.919-.081 5.657s.014 4.181.081 5.657c.062 1.365.29 2.106.482 2.6.254.653.558 1.12 1.047 1.61.49.49.957.793 1.61 1.047.494.192 1.235.42 2.6.482 1.476.067 1.919.081 5.657.081s4.181-.014 5.657-.081c1.365-.062 2.106-.29 2.6-.482a4.337 4.337 0 0 0 1.61-1.047c.49-.49.793-.957 1.047-1.61.192-.494.42-1.235.482-2.6.067-1.476.081-1.919.081-5.657s-.014-4.181-.081-5.657c-.062-1.365-.29-2.106-.482-2.6a4.337 4.337 0 0 0-1.047-1.61 4.337 4.337 0 0 0-1.61-1.047c-.494-.192-1.235-.42-2.6-.482-1.476-.067-1.919-.081-5.657-.081zm0 4.288a7.19 7.19 0 1 1 0 14.378 7.19 7.19 0 0 1 0-14.378zm0 11.856a4.667 4.667 0 1 0 0-9.334 4.667 4.667 0 0 0 0 9.334zm9.153-12.14a1.68 1.68 0 1 1-3.36 0 1.68 1.68 0 0 1 3.36 0z"/></svg>