<svg xmlns="http://www.w3.org/2000/svg" width="57" height="93" viewBox="0 0 57 93"><defs><linearGradient id="a" x1="0%" x2="102%" y1="0%" y2="101%"><stop offset="0%" stop-color="#3023AE"/><stop offset="100%" stop-color="#C96DD8"/></linearGradient></defs><path fill="url(#a)" fill-rule="evenodd" d="M55.692 53.145a4.626 4.626 0 0 1-1.701 6.318 4.623 4.623 0 0 1-6.318-1.693l-5.314-9.207v8.293c0 .119-.012.234-.019.348.039.279.066.558.066.847v28c0 3.312-2.687 6-6 6h-.278c-3.312 0-6-2.687-6-6V62.858H26.99v23.193c0 3.312-2.687 6-6 6h-.278c-3.312 0-6-2.687-6-6v-28c0-.119.011-.234.019-.349a6.071 6.071 0 0 1-.066-.846v-8.127L9.446 57.77a4.624 4.624 0 1 1-8.011-4.625l12.478-21.608a4.615 4.615 0 0 1 3.771-2.302l.008-.014h21.671l.008.017c1.538.057 3.016.864 3.843 2.299l12.478 21.608zM28.566 26.006c-6.95 0-12.583-5.634-12.583-12.583C15.983 6.473 21.617.84 28.566.84c6.95 0 12.583 5.634 12.583 12.583 0 6.95-5.634 12.583-12.583 12.583z"/></svg>