<svg xmlns="http://www.w3.org/2000/svg" width="200" height="34" viewBox="0 0 200 34"><path fill="#FFF" fill-rule="evenodd" d="M0 21.285s2.78 3.39 8.386 3.39c4.262 0 7.413-2.59 7.413-6.356 0-7.818-12.741-5.981-12.741-12.103 0-3.06 2.594-4.285 5.235-4.285 3.938 0 5.838 2.213 5.838 2.213l1.158-1.601S13.158 0 8.432 0C4.494 0 1.02 2.166 1.02 6.357c0 7.676 12.741 5.981 12.741 11.962 0 2.92-2.502 4.426-5.328 4.426-4.587 0-7.181-2.967-7.181-2.967L0 21.285zm60.335 2.826h2.085l6.393-18.272c.417-1.13.788-2.543.788-2.543h.093s.37 1.413.787 2.543l6.44 18.272h2.085L87.16.565h-2.085l-6.3 18.46c-.418 1.177-.788 2.543-.788 2.543h-.093s-.417-1.413-.788-2.543L70.76.659h-2.177l-6.348 18.366c-.37 1.13-.787 2.543-.787 2.543h-.093s-.417-1.413-.787-2.543L54.266.565H52.18l8.154 23.546zm63.068-6.263c0-8.006 10.24-8.1 14.363-8.1h1.528v-.8c0-5.228-2.64-7.017-6.347-7.017-4.03 0-6.625 2.26-6.625 2.26L125.21 2.59S127.99 0 133.04 0c5.328 0 8.2 3.014 8.2 8.9v15.21h-1.946v-3.107c0-1.272.186-2.12.186-2.12h-.093c.046 0-2.085 5.793-8.108 5.793-3.752 0-7.876-2.12-7.876-6.828zm2.039-.142c0 2.496 1.992 5.133 5.93 5.133 5.05 0 7.922-5.321 7.922-9.983v-1.272h-1.482c-3.938 0-12.37 0-12.37 6.122zm53.015 14.975S179.985 34 182.209 34c2.92 0 4.865-1.93 5.884-4.38L200 .565h-2.085l-7.644 18.79a27.117 27.117 0 0 0-.788 2.213h-.093s-.37-1.083-.834-2.213L180.912.565h-2.085l9.59 23.405-1.667 3.908c-.927 2.213-2.317 4.238-4.54 4.238-1.576 0-2.873-1.13-2.873-1.13l-.88 1.695z"/></svg>